<?xml version="1.0" encoding="iso-8859-1"?>
<!-- Generator: Adobe Illustrator 19.0.0, SVG Export Plug-In . SVG Version: 6.00 Build 0)  -->
<svg version="1.1" id="Layer_1" xmlns="http://www.w3.org/2000/svg" x="0px"
     y="0px"
     viewBox="0 0 512 512" style="enable-background:new 0 0 512 512;" xml:space="preserve">
<path style="fill:#E5E5E5;" d="M218.586,83.106h62.938c0.253,0,0.522,0.03,0.79,0.057V19.287c0-2.873-2.351-5.224-5.224-5.224
	h-54.067c-2.873,0-5.224,2.351-5.224,5.224v63.877C218.064,83.136,218.333,83.106,218.586,83.106z"/>
    <path style="fill:#6FA7F7;" d="M218.586,83.106h62.938c0.253,0,0.522,0.03,0.79,0.057V65.829c0-2.873-2.351-5.224-5.224-5.224
	h-54.067c-2.873,0-5.224,2.351-5.224,5.224v17.335C218.064,83.136,218.333,83.106,218.586,83.106z"/>
    <path style="fill:#E5E5E5;" d="M337.458,141.964l-47.298-54.9c-1.876-2.177-5.762-3.958-8.635-3.958h-62.938
	c-2.873,0-6.759,1.781-8.635,3.958l-47.298,54.9H337.458z"/>
    <path style="opacity:0.1;enable-background:new    ;" d="M196.883,141.964l47.298-54.9c1.876-2.177,5.762-3.958,8.635-3.958h-34.23
	c-2.873,0-6.759,1.781-8.635,3.958l-47.298,54.9H196.883z"/>
    <path style="fill:#4BC8DD;" d="M365.507,167.611c0,2.873-2.351,5.224-5.224,5.224H139.83c-2.873,0-5.224-2.351-5.224-5.224v-20.423
	c0-2.873,2.351-5.224,5.224-5.224h220.453c2.873,0,5.224,2.351,5.224,5.224V167.611z"/>
    <rect x="149.89" y="172.837" style="fill:#D1D3D4;" width="200.338" height="299.635"/>
    <rect x="149.89" y="172.837" style="opacity:0.1;enable-background:new    ;" width="28.79" height="299.635"/>
    <path style="fill:#FFFFFF;" d="M193.461,226.288h-43.575v173.176h43.575c3.114,0,5.661-2.546,5.661-5.659V231.947
	C199.123,228.836,196.576,226.288,193.461,226.288z"/>
    <path style="fill:#6FA7F7;" d="M350.227,217.37c-3.092-0.459-6.255-0.703-9.475-0.703c-35.385,0-64.071,28.686-64.071,64.072
	s28.686,64.072,64.071,64.072c3.22,0,6.383-0.243,9.475-0.703V217.37z"/>
    <g style="opacity:0.1;">
	<path d="M305.109,280.74c0-28.788,18.986-53.138,45.119-61.221v-2.149c-3.092-0.459-6.255-0.703-9.475-0.703
		c-35.385,0-64.071,28.686-64.071,64.072s28.686,64.072,64.071,64.072c3.22,0,6.383-0.243,9.475-0.703v-2.149
		C324.094,333.878,305.109,309.528,305.109,280.74z"/>
</g>
    <g style="opacity:0.1;">
	<path d="M168.248,167.611v-20.423c0-2.873,2.351-5.224,5.224-5.224H139.83c-2.873,0-5.224,2.351-5.224,5.224v20.423
		c0,2.873,2.351,5.224,5.224,5.224h33.643C170.599,172.836,168.248,170.484,168.248,167.611z"/>
</g>
    <path style="fill:#4BC8DD;" d="M365.507,498.939c0,2.873-2.351,5.224-5.224,5.224H139.83c-2.873,0-5.224-2.351-5.224-5.224v-21.244
	c0-2.873,2.351-5.224,5.224-5.224h220.453c2.873,0,5.224,2.351,5.224,5.224V498.939z"/>
    <g style="opacity:0.1;">
	<path d="M168.248,498.939v-21.244c0-2.873,2.351-5.224,5.224-5.224H139.83c-2.873,0-5.224,2.351-5.224,5.224v21.244
		c0,2.873,2.351,5.224,5.224,5.224h33.643C170.599,504.163,168.248,501.812,168.248,498.939z"/>
</g>
    <path d="M360.282,134.127H341.05l-44.953-52.178c-1.546-1.795-3.637-3.338-5.945-4.491V19.287c0-7.202-5.86-13.061-13.061-13.061
	h-54.068c-7.202,0-13.061,5.859-13.061,13.061v58.171c-2.308,1.154-4.4,2.697-5.947,4.492l-44.953,52.178H139.83
	c-7.202,0-13.061,5.859-13.061,13.061v20.423c0,7.202,5.859,13.061,13.061,13.061h2.22v283.961h-2.22
	c-7.202,0-13.061,5.859-13.061,13.061v21.244c0,7.202,5.859,13.061,13.061,13.061h220.453c7.202,0,13.061-5.859,13.061-13.061
	v-21.244c0-7.202-5.859-13.061-13.061-13.061h-2.218V180.672h2.218c7.202,0,13.061-5.859,13.061-13.061v-20.423
	C373.344,139.986,367.484,134.127,360.282,134.127z M274.478,21.899v8.096h-2.351c-4.329,0-7.837,3.509-7.837,7.837
	s3.508,7.837,7.837,7.837h2.351v29.601h-48.844v-6.828h19.915c4.329,0,7.837-3.509,7.837-7.837s-3.508-7.837-7.837-7.837h-19.915
	V21.899H274.478z M142.441,149.801h128.185c4.329,0,7.837-3.509,7.837-7.837c0-4.328-3.508-7.837-7.837-7.837h-90.877l36.124-41.931
	c0.481-0.504,2.04-1.219,2.713-1.254l62.916-0.001c0.695,0.036,2.254,0.75,2.721,1.237l36.139,41.947h-10.029
	c-4.329,0-7.837,3.509-7.837,7.837c0,4.328,3.508,7.837,7.837,7.837h47.337v15.198H142.442v-15.197H142.441z M342.391,336.945
	c-0.546,0.017-1.094,0.03-1.638,0.03c-31.008,0-56.234-25.227-56.234-56.235s25.227-56.235,56.234-56.235
	c0.544,0,1.092,0.015,1.638,0.03V336.945z M342.391,208.861c-0.546-0.013-1.094-0.03-1.638-0.03
	c-39.65,0-71.908,32.258-71.908,71.909c0,39.651,32.258,71.909,71.908,71.909c0.544,0,1.092-0.018,1.638-0.03v28.257h-51.02
	c-4.329,0-7.837,3.509-7.837,7.837c0,4.328,3.508,7.837,7.837,7.837h51.02v13.755h-32.91c-4.329,0-7.837,3.509-7.837,7.837
	s3.508,7.837,7.837,7.837h32.91v38.657H241.369c-4.329,0-7.837,3.509-7.837,7.837s3.508,7.837,7.837,7.837H357.67v16.018H142.442
	v-16.019h65.492c4.329,0,7.837-3.509,7.837-7.837s-3.508-7.837-7.837-7.837h-50.21v-57.332h35.739
	c7.443,0,13.498-6.054,13.498-13.496v-14.507c0-4.328-3.508-7.837-7.837-7.837c-4.329,0-7.837,3.509-7.837,7.837v12.331h-33.563
	v-21.474h9.927c4.329,0,7.837-3.509,7.837-7.837s-3.508-7.837-7.837-7.837h-9.927v-28.212h9.927c4.329,0,7.837-3.509,7.837-7.837
	s-3.508-7.837-7.837-7.837h-9.927v-12.539h9.927c4.329,0,7.837-3.509,7.837-7.837s-3.508-7.837-7.837-7.837h-9.927v-12.539h9.927
	c4.329,0,7.837-3.509,7.837-7.837s-3.508-7.837-7.837-7.837h-9.927v-20.046h33.563v108.601c0,4.328,3.508,7.837,7.837,7.837
	c4.329,0,7.837-3.509,7.837-7.837V231.947c0-7.442-6.055-13.496-13.498-13.496h-35.739v-37.779h184.667V208.861z"/>
    <path d="M306.645,46.237c2.069,0,4.086-0.836,5.548-2.299c1.452-1.463,2.298-3.48,2.298-5.538c0-2.069-0.846-4.086-2.298-5.548
	c-1.463-1.452-3.479-2.288-5.548-2.288c-2.058,0-4.075,0.836-5.538,2.288c-1.463,1.463-2.299,3.48-2.299,5.548
	c0,2.058,0.836,4.086,2.299,5.538C302.568,45.401,304.586,46.237,306.645,46.237z"/>
    <path d="M329.402,43.938c1.462,1.463,3.479,2.299,5.548,2.299c2.06,0,4.075-0.836,5.538-2.299c1.463-1.463,2.299-3.48,2.299-5.538
	c0-2.069-0.836-4.086-2.299-5.548c-1.462-1.452-3.478-2.288-5.538-2.288c-2.068,0-4.086,0.836-5.548,2.288
	c-1.453,1.463-2.288,3.48-2.288,5.548C327.114,40.458,327.949,42.475,329.402,43.938z"/>
    <path d="M357.698,43.938c1.462,1.463,3.479,2.299,5.548,2.299c2.058,0,4.086-0.836,5.538-2.299c1.463-1.463,2.299-3.48,2.299-5.538
	c0-2.069-0.836-4.086-2.299-5.548c-1.452-1.452-3.479-2.288-5.538-2.288c-2.068,0-4.086,0.836-5.548,2.288
	c-1.453,1.463-2.288,3.48-2.288,5.548C355.41,40.458,356.246,42.486,357.698,43.938z"/>
    <path d="M320.803,15.673c2.06,0,4.075-0.836,5.538-2.299c1.463-1.452,2.299-3.48,2.299-5.538s-0.836-4.086-2.299-5.538
	C324.879,0.836,322.862,0,320.803,0c-2.068,0-4.086,0.836-5.548,2.299c-1.463,1.452-2.299,3.48-2.299,5.538s0.836,4.086,2.299,5.538
	C316.716,14.838,318.734,15.673,320.803,15.673z"/>
    <path d="M349.088,15.673c2.068,0,4.086-0.836,5.548-2.299c1.463-1.452,2.299-3.48,2.299-5.538s-0.836-4.086-2.299-5.538
	C353.175,0.836,351.157,0,349.088,0c-2.058,0-4.075,0.836-5.538,2.299c-1.453,1.452-2.288,3.48-2.288,5.538s0.836,4.086,2.288,5.538
	C345.013,14.838,347.03,15.673,349.088,15.673z"/>
    <path d="M377.395,15.673c2.058,0,4.075-0.836,5.538-2.299c1.463-1.452,2.299-3.48,2.299-5.538s-0.836-4.086-2.299-5.538
	C381.48,0.836,379.453,0,377.395,0c-2.069,0-4.086,0.836-5.548,2.299c-1.453,1.452-2.288,3.48-2.288,5.538s0.836,4.086,2.288,5.538
	C373.309,14.838,375.326,15.673,377.395,15.673z"/>
    <path d="M320.803,59.988c-2.068,0-4.086,0.836-5.548,2.299c-1.463,1.452-2.299,3.48-2.299,5.538s0.836,4.086,2.299,5.538
	c1.462,1.463,3.479,2.299,5.548,2.299c2.06,0,4.075-0.836,5.538-2.299c1.463-1.452,2.299-3.469,2.299-5.538
	c0-2.058-0.836-4.086-2.299-5.538C324.878,60.824,322.861,59.988,320.803,59.988z"/>
    <path d="M349.088,59.988c-2.058,0-4.075,0.836-5.538,2.299c-1.453,1.452-2.288,3.48-2.288,5.538c0,2.069,0.836,4.086,2.288,5.548
	c1.462,1.452,3.479,2.288,5.538,2.288c2.068,0,4.086-0.836,5.548-2.288c1.463-1.463,2.299-3.48,2.299-5.548
	c0-2.058-0.836-4.086-2.299-5.538C353.174,60.824,351.156,59.988,349.088,59.988z"/>
    <path d="M377.395,59.988c-2.069,0-4.086,0.836-5.548,2.299c-1.453,1.452-2.288,3.48-2.288,5.538c0,2.069,0.836,4.086,2.288,5.538
	c1.462,1.463,3.479,2.299,5.548,2.299c2.058,0,4.086-0.836,5.538-2.299c1.463-1.452,2.299-3.469,2.299-5.538
	c0-2.058-0.836-4.086-2.299-5.538C381.48,60.824,379.452,59.988,377.395,59.988z"/>
    <path style="opacity:0.1;enable-background:new    ;" d="M218.586,83.106h22.007V19.287c0-2.873,2.351-5.224,5.224-5.224h-22.794
	c-2.873,0-5.224,2.351-5.224,5.224v63.877C218.064,83.136,218.333,83.106,218.586,83.106z"/>
    <g>
</g>
    <g>
</g>
    <g>
</g>
    <g>
</g>
    <g>
</g>
    <g>
</g>
    <g>
</g>
    <g>
</g>
    <g>
</g>
    <g>
</g>
    <g>
</g>
    <g>
</g>
    <g>
</g>
    <g>
</g>
    <g>
</g>
</svg>
