<?xml version="1.0" standalone="no"?>
<!DOCTYPE svg PUBLIC "-//W3C//DTD SVG 20010904//EN"
        "http://www.w3.org/TR/2001/REC-SVG-20010904/DTD/svg10.dtd">
<svg version="1.0" xmlns="http://www.w3.org/2000/svg"
     width="72.000000pt" height="72.000000pt" viewBox="0 0 72.000000 72.000000"
     preserveAspectRatio="xMidYMid meet">
    <metadata>
        Created by potrace 1.11, written by Peter Selinger 2001-2013
    </metadata>
    <g transform="translate(0.000000,72.000000) scale(0.100000,-0.100000)"
       fill="#000000" stroke="none">
        <path d="M180 710 c0 -6 7 -10 15 -10 8 0 15 2 15 4 0 2 -7 6 -15 10 -8 3 -15
1 -15 -4z"/>
        <path d="M225 710 c-3 -5 -1 -10 4 -10 6 0 11 5 11 10 0 6 -2 10 -4 10 -3 0
-8 -4 -11 -10z"/>
        <path d="M260 709 c0 -5 5 -7 10 -4 6 3 10 8 10 11 0 2 -4 4 -10 4 -5 0 -10
-5 -10 -11z"/>
        <path d="M349 710 c-34 -5 -36 -7 -37 -42 -1 -65 -2 -69 -12 -63 -5 3 -10 0
-10 -7 -1 -22 -38 -59 -67 -67 -31 -8 -36 -25 -18 -56 18 -31 14 -397 -4 -419
-11 -13 -12 -22 -4 -34 9 -15 34 -17 177 -20 l166 -2 0 29 c0 15 -7 34 -15 41
-11 9 -12 17 -4 31 6 13 6 25 -1 38 -7 14 -7 22 0 26 8 5 8 11 0 20 -8 10 -8
19 0 34 7 15 7 21 0 21 -8 0 -8 6 0 20 7 14 8 26 0 39 -7 14 -7 22 0 26 8 5 7
11 0 20 -8 10 -8 20 -2 32 7 11 7 24 1 35 -7 12 -6 18 1 18 7 0 9 8 5 20 -4
11 -2 20 4 20 6 0 11 14 11 30 0 22 -5 30 -18 30 -10 0 -35 18 -56 39 -31 32
-39 48 -41 83 -2 24 -3 46 -4 49 -2 11 -34 15 -72 9z"/>
        <path d="M251 664 c0 -11 3 -14 6 -6 3 7 2 16 -1 19 -3 4 -6 -2 -5 -13z"/>
        <path d="M280 670 c0 -5 5 -10 11 -10 5 0 7 5 4 10 -3 6 -8 10 -11 10 -2 0 -4
-4 -4 -10z"/>
        <path d="M205 660 c3 -5 8 -10 11 -10 2 0 4 5 4 10 0 6 -5 10 -11 10 -5 0 -7
-4 -4 -10z"/>
        <path d="M260 631 c0 -6 4 -13 10 -16 6 -3 7 1 4 9 -7 18 -14 21 -14 7z"/>
        <path d="M180 619 c0 -5 5 -7 10 -4 6 3 10 8 10 11 0 2 -4 4 -10 4 -5 0 -10
-5 -10 -11z"/>
        <path d="M220 619 c0 -5 5 -7 10 -4 6 3 10 8 10 11 0 2 -4 4 -10 4 -5 0 -10
-5 -10 -11z"/>
    </g>
</svg>
